<?xml version="1.0" encoding="UTF-8"?><svg xmlns="http://www.w3.org/2000/svg" viewBox="0 0 1080 1080"><defs><style>.cls-1{fill:#fff;stroke:#000;stroke-miterlimit:10;stroke-width:5px;}</style></defs><g id="Camada_6"><path class="cls-1" d="M798,627c2.43,.26,33.47,3.24,56.04-9,11.98-6.5,18.01-15.34,17.42-24.11-.36-5.41-3.19-9.35-4.34-10.89-14.27-19.2-64.24-19.51-68.47-19.5l-.65,63.5Z"/></g><g id="Camada_5"><path class="cls-1" d="M813.5,634l.13-173.28c-.83-36.01-3.41-71.96-7.83-107.7-10.9-88.21-23.76-142.57-69.31-188.52-66.88-67.47-158.71-70.9-182-71-11.06-.05-118.26,1.15-197,83-20.61,21.42-59,59-79,196-6.32,43.28-18,168-12,395l4.55,106.29c2.29,53.63,58.64,87.47,107.06,64.3l11.58-5.54c25.1-12.01,54.78-9.1,77.08,7.54l23.28,17.38c23.98,17.91,56.34,19.81,82.25,4.81l54.92-31.78c22.55-13.05,50.26-13.43,73.16-1h0c48.79,26.47,108.4-7.53,110.45-62.99l2.68-231.51v-1Z"/></g><g id="Camada_2"><g id="Camada_3"><path class="cls-1" d="M422.5,621.54c2.11,.26,28.96,3.24,48.49-9,14.75-9.24,19.06-23.24,11.31-35-9.05-13.72-33.06-22.15-58.19-20"/></g><ellipse class="cls-1" cx="498" cy="317" rx="49.5" ry="60.5"/><ellipse class="cls-1" cx="672" cy="325" rx="49.5" ry="60.5"/></g></svg>