<?xml version="1.0" encoding="UTF-8"?><svg id="Camada_5" xmlns="http://www.w3.org/2000/svg" viewBox="0 0 1080 1080"><defs><style>.cls-1,.cls-2{fill:#fff;}.cls-3{fill:#0e3500;}.cls-3,.cls-4,.cls-5,.cls-6,.cls-7,.cls-2{stroke-width:10px;}.cls-3,.cls-4,.cls-5,.cls-6,.cls-7,.cls-2,.cls-8{stroke:#000;stroke-miterlimit:10;}.cls-4{fill:#347f00;}.cls-5{fill:#567400;}.cls-6{fill:#007f2f;}.cls-7{fill:#feff4a;}.cls-8{fill:#606060;stroke-width:8px;}</style></defs><g id="Foto_rei"><path class="cls-2" d="M789,608c2.43,.26,33.47,3.24,56.04-9,11.98-6.5,18.01-15.34,17.42-24.11-.36-5.41-3.19-9.35-4.34-10.89-14.27-19.2-64.24-19.51-68.47-19.5l-.65,63.5Z"/><path class="cls-2" d="M812.93,685.25l.13-196.58c-.83-40.85-3.41-81.63-7.83-122.18-10.9-100.07-23.76-161.73-69.31-213.86-66.88-76.54-158.71-80.43-182-80.55-11.06-.06-118.26,1.31-197,94.16-20.61,24.31-59,66.93-79,222.35-6.32,49.1-18,190.59-12,448.1l4.55,120.58c2.29,60.84,58.64,99.23,107.06,72.94l11.58-6.29c25.1-13.63,54.78-10.33,77.08,8.56l23.28,19.72c23.98,20.32,56.34,22.47,82.25,5.46l54.92-36.05c22.55-14.8,50.26-15.23,73.16-1.14h0c48.79,30.03,108.4-8.54,110.45-71.46l2.68-262.63v-1.13Z"/><circle class="cls-8" cx="653" cy="661" r="16.5"/><path class="cls-2" d="M413.5,602.54c2.11,.26,28.96,3.24,48.49-9,14.75-9.24,19.06-23.24,11.31-35-9.05-13.72-33.06-22.15-58.19-20"/><ellipse class="cls-2" cx="489" cy="298" rx="49.5" ry="60.5"/><ellipse class="cls-2" cx="663" cy="306" rx="49.5" ry="60.5"/><path d="M373.23,318.54c4.87,8.64,9.63,17.35,15.14,25.61,9.09,13.62,19.65,26.24,31.41,37.63,2.95,2.86,5.9,5.72,8.86,8.58,3.38,3.28,9.4,3.62,12.73,0,3.25-3.55,3.61-9.23,0-12.73-7.07-6.85-14.24-13.61-20.78-20.98-3.28-3.69-6.42-7.49-9.44-11.39l1.41,1.82c-5.31-6.89-10.2-14.08-14.65-21.55-2.3-3.87-4.48-7.83-6.69-11.75-.81-1.44-1.63-2.88-2.44-4.32-2.31-4.1-8.27-5.83-12.31-3.23s-5.71,7.92-3.23,12.31h0Z"/><g><path class="cls-1" d="M379.57,347.3l4.69-2.37c7.12-3.6,13.69-8.21,19.5-13.68l3.77-3.55"/><path d="M384.11,355.07c5.2-2.63,10.34-5.27,15.12-8.64,5.27-3.71,9.99-7.96,14.66-12.37,3.43-3.24,3.51-9.51,0-12.73-3.68-3.38-9.06-3.45-12.73,0-3.19,3.01-6.36,6.02-9.82,8.73l1.82-1.41c-5.65,4.35-11.81,7.67-18.14,10.87-4.21,2.13-5.75,8.4-3.23,12.31,2.77,4.3,7.81,5.5,12.31,3.23h0Z"/></g><g><path class="cls-1" d="M399.38,373.79l4.69-2.37c7.12-3.6,13.69-8.21,19.5-13.68l3.77-3.55"/><path d="M403.92,381.56c5.2-2.63,10.34-5.27,15.12-8.64,5.27-3.71,9.99-7.96,14.66-12.37,3.43-3.24,3.51-9.51,0-12.73-3.68-3.38-9.06-3.45-12.73,0-3.19,3.01-6.36,6.02-9.82,8.73l1.82-1.41c-5.65,4.35-11.81,7.67-18.14,10.87-4.21,2.13-5.75,8.4-3.23,12.31,2.77,4.3,7.81,5.5,12.31,3.23h0Z"/></g><path class="cls-2" d="M647.99,640.2l-17.2-30.65c-2.15-3.83,.62-8.55,5.01-8.55h34.4c4.39,0,7.15,4.72,5.01,8.55l-17.2,30.65c-2.19,3.91-7.82,3.91-10.01,0Z"/><rect class="cls-2" x="613" y="594" width="81" height="29" rx="8.08" ry="8.08"/><path class="cls-3" d="M256.33,309.45c15.14,20.22,19.67,24.55,42.87,26.82,68.57,6.69,81.8-58.27,181.01-91.7,129.88-43.77,253.62,51.44,336.78,61.44,33.84,4.07,31.65-84.24,20.37-126.74-2.95-11.12-6.88-20.02-8.37-23.26-15.87-34.67-41.77-52.43-66.78-73.21-26.58-22.09-52.07-32.98-64.26-38.25,0,0-8.1-3.5-16.42-6.51-37.65-13.62-84.91-18.15-114.63-17.52-146.93,3.11-232.46,85.65-232.46,85.65-57.23,52.98-116.79,151.67-78.12,203.3Z"/><path class="cls-5" d="M268,191c-7,12,30.8,41.44,47.24,46.85,29.06,9.57,64.48-15.73,63-30-1.38-13.3-21.24-8.85-26.24-22.85-3.54-9.92,2.76-36.85,20-40,26.45-4.83,28.85,8.52,44.24,6.85,44.76-4.85,54.1-55.09,51.76-73.85-2-16-25-15-69-12-27.94,1.9-88.48,64.06-92.48,69.06-10.99,13.73-18.53,21.68-38.52,55.94Z"/><path class="cls-6" d="M662,36c-2.17,.84-7.19,2.88-9.67,7.74-6.08,11.91,7.14,32.98,21.67,45.26,27.28,23.08,56.63,13.03,62,28,3.98,11.1-8.14,28.13-22,37-25.57,16.37-52.51-6.6-75,10-12.58,9.28-17.47,26.29-16,39,4.1,35.51,60.31,58.97,87,45,18.12-9.49,11.48-30.39,33-42,20.92-11.29,48.59-3.08,59,0,23.5,6.96,42.56,20.15,42,14-2.63-28.91-9.64-50.96-10-52-8-23.18-23.94-41.2-27-45-50-62-126.89-94-145-87Z"/><path class="cls-4" d="M503.39,112.62c-6.26-.4-17.97-1.16-26.5,6.14-11.73,10.03-5.48,24.99-15.48,31.58-10.69,7.04-22.46-7.01-44.23-3.95-11.24,1.58-26.68,7.93-32.65,19.33-13.18,25.17,17.88,90.08,55.69,85.36,32.79-4.09,35.17-10.39,72.79-17.09,30.82-5.49,41-7,73-2,13.97,2.18,27,10,39,4,11.29-5.64-14.51-47.78-38.15-74.17-10.78-12.03-42.99-46.59-83.45-49.2Z"/><path class="cls-2" d="M692.74,649.29l-17.2-30.65c-2.15-3.83,.62-8.55,5.01-8.55h34.4c4.39,0,7.15,4.72,5.01,8.55l-17.2,30.65c-2.19,3.91-7.82,3.91-10.01,0Z"/><rect class="cls-2" x="657.74" y="603.09" width="81" height="29" rx="8.08" ry="8.08"/><path class="cls-7" d="M699.06,656.24l5.8,11.75c.25,.51,.75,.87,1.31,.95l12.96,1.88c1.43,.21,2,1.97,.97,2.97l-9.38,9.14c-.41,.4-.6,.98-.5,1.54l2.21,12.91c.24,1.42-1.25,2.51-2.53,1.84l-11.59-6.1c-.51-.27-1.12-.27-1.62,0l-11.59,6.1c-1.28,.67-2.77-.41-2.53-1.84l2.21-12.91c.1-.57-.09-1.14-.5-1.54l-9.38-9.14c-1.04-1.01-.46-2.77,.97-2.97l12.96-1.88c.57-.08,1.06-.44,1.31-.95l5.8-11.75c.64-1.3,2.49-1.3,3.13,0Z"/><path d="M495.3,732.77c7.45-6.6,15-13.1,21.94-20.25,11.38-11.72,21.41-24.74,30.06-38.58,2.18-3.49,4.36-6.97,6.53-10.46,2.5-4,.98-10.09-3.23-12.31-4.42-2.34-9.65-1.04-12.31,3.23-3.92,6.27-7.73,12.61-11.9,18.71-2.39,3.5-4.89,6.93-7.49,10.29l1.41-1.82c-6.09,7.86-12.71,15.31-19.83,22.26-4.29,4.19-8.8,8.13-13.28,12.11-1.54,1.37-3.09,2.73-4.63,4.1-3.54,3.13-3.43,9.58,0,12.73,3.77,3.46,8.96,3.34,12.73,0h0Z"/><g><path class="cls-1" d="M521.8,720.82l-3.3-4.09c-5.01-6.21-10.89-11.67-17.46-16.2l-4.26-2.94"/><path d="M528.16,714.46c-3.66-4.53-7.32-9.01-11.61-12.97-4.72-4.36-9.96-8.03-15.23-11.67-1.84-1.27-4.85-1.48-6.94-.91s-4.35,2.19-5.38,4.14c-1.1,2.09-1.66,4.62-.91,6.94s2.12,3.99,4.14,5.38c2.61,1.8,5.25,3.57,7.77,5.5l-1.82-1.41c4.41,3.42,8.49,7.25,12.13,11.47,1.76,2.04,3.42,4.17,5.12,6.26,1.36,1.68,4.3,2.64,6.36,2.64,2.21,0,4.84-.98,6.36-2.64s2.74-3.97,2.64-6.36c-.11-2.53-1.06-4.41-2.64-6.36h0Z"/></g><g><path class="cls-1" d="M543.55,695.91l-3.3-4.09c-5.01-6.21-10.89-11.67-17.46-16.2l-4.26-2.94"/><path d="M549.91,689.54c-3.66-4.53-7.32-9.01-11.61-12.97-4.72-4.36-9.96-8.03-15.23-11.67-1.84-1.27-4.85-1.48-6.94-.91s-4.35,2.19-5.38,4.14c-1.1,2.09-1.66,4.62-.91,6.94s2.12,3.99,4.14,5.38c2.61,1.8,5.25,3.57,7.77,5.5l-1.82-1.41c4.41,3.42,8.49,7.25,12.13,11.47,1.76,2.04,3.42,4.17,5.12,6.26,1.36,1.68,4.3,2.64,6.36,2.64,2.21,0,4.84-.98,6.36-2.64s2.74-3.97,2.64-6.36c-.11-2.53-1.06-4.41-2.64-6.36h0Z"/></g></g></svg>