<?xml version="1.0" encoding="UTF-8"?><svg xmlns="http://www.w3.org/2000/svg" viewBox="0 0 1080 1080"><defs><style>.cls-1{fill:#fff;}.cls-1,.cls-2,.cls-3{stroke:#000;stroke-miterlimit:10;}.cls-1,.cls-3{stroke-width:5px;}.cls-2{stroke-width:3px;}.cls-2,.cls-3{fill:none;}</style></defs><g id="Camada_2"><g id="Camada_3"><path class="cls-1" d="M806,658c2.43,.26,33.47,3.24,56.04-9,11.98-6.5,18.01-15.34,17.42-24.11-.36-5.41-3.19-9.35-4.34-10.89-14.27-19.2-64.24-19.51-68.47-19.5l-.65,63.5Z"/><path class="cls-1" d="M821.5,655.17l.13-196.58c-.83-40.85-3.41-81.63-7.83-122.18-10.9-100.07-23.76-161.73-69.31-213.86-66.88-76.54-158.71-80.43-182-80.55-11.06-.06-118.26,1.31-197,94.16-20.61,24.31-59,66.93-79,222.35-6.32,49.1-18,190.59-12,448.1l4.55,120.58c2.29,60.84,58.64,99.23,107.06,72.94l11.58-6.29c25.1-13.63,54.78-10.33,77.08,8.56l23.28,19.72c23.98,20.32,56.34,22.47,82.25,5.46l54.92-36.05c22.55-14.8,50.26-15.23,73.16-1.14h0c48.79,30.03,108.4-8.54,110.45-71.46l2.68-262.63v-1.13Z"/><path class="cls-1" d="M430.5,652.54c2.11,.26,28.96,3.24,48.49-9,14.75-9.24,19.06-23.24,11.31-35-9.05-13.72-33.06-22.15-58.19-20"/><ellipse class="cls-1" cx="493" cy="282" rx="49.5" ry="60.5"/><ellipse class="cls-1" cx="667" cy="290" rx="49.5" ry="60.5"/><path class="cls-3" d="M272.5,675.5l106.12,61.84c18.92,11.02,26.96,34.2,18.94,54.57l-38.3,97.32c-7.98,20.27-30.5,30.67-51.1,23.59l-29.66-10.19"/><path d="M318.62,669.36c-3.2,5.55-6.41,11.1-9.61,16.65-5.1,8.84-10.21,17.68-15.31,26.52-1.17,2.02-2.33,4.04-3.5,6.07-1.93,3.35,3.25,6.37,5.18,3.03,3.2-5.55,6.41-11.1,9.61-16.65,5.1-8.84,10.21-17.68,15.31-26.52,1.17-2.02,2.33-4.04,3.5-6.07,1.93-3.35-3.25-6.37-5.18-3.03h0Z"/><path d="M378.82,704.09c-3.2,5.55-6.41,11.1-9.61,16.65l-15.31,26.52c-1.17,2.02-2.33,4.04-3.5,6.07-1.93,3.35,3.25,6.37,5.18,3.03,3.2-5.55,6.41-11.1,9.61-16.65,5.1-8.84,10.21-17.68,15.31-26.52,1.17-2.02,2.33-4.04,3.5-6.07,1.93-3.35-3.25-6.37-5.18-3.03h0Z"/><path d="M413.7,821.15c-5.86-2.6-11.72-5.19-17.58-7.79-9.33-4.14-18.67-8.27-28-12.41-2.13-.95-4.27-1.89-6.4-2.84-1.48-.66-3.22-.43-4.1,1.08-.75,1.28-.41,3.44,1.08,4.1,5.86,2.6,11.72,5.19,17.58,7.79,9.33,4.14,18.67,8.27,28,12.41,2.13,.95,4.27,1.89,6.4,2.84,1.48,.66,3.22,.43,4.1-1.08,.75-1.28,.41-3.44-1.08-4.1h0Z"/><path d="M394.7,889.15c-5.86-2.6-11.72-5.19-17.58-7.79-9.33-4.14-18.67-8.27-28-12.41-2.13-.95-4.27-1.89-6.4-2.84-1.48-.66-3.22-.43-4.1,1.08-.75,1.28-.41,3.44,1.08,4.1,5.86,2.6,11.72,5.19,17.58,7.79,9.33,4.14,18.67,8.27,28,12.41,2.13,.95,4.27,1.89,6.4,2.84,1.48,.66,3.22,.43,4.1-1.08,.75-1.28,.41-3.44-1.08-4.1h0Z"/><path class="cls-2" d="M598.68,45.77l-15.89,23.04c-4.14,6.01,.16,14.19,7.45,14.19h22.2c12.13,0,24.22,1.48,35.99,4.4l10.55,2.62c4.54,1.13,9.19-1.39,10.73-5.81l5.29-15.2"/><path d="M607.35,72.88c-1.34,6.26-2.68,12.51-4.02,18.77-.19,.89-.38,1.78-.57,2.67-.4,1.88,2.49,2.69,2.89,.8,1.34-6.26,2.68-12.51,4.02-18.77,.19-.89,.38-1.78,.57-2.67,.4-1.88-2.49-2.69-2.89-.8h0Z"/><path d="M642.6,75.74c-.49,6.37-.97,12.74-1.46,19.12-.07,.92-.14,1.83-.21,2.75-.15,1.93,2.85,1.92,3,0,.49-6.37,.97-12.74,1.46-19.12,.07-.92,.14-1.83,.21-2.75,.15-1.93-2.85-1.92-3,0h0Z"/></g></g><g id="Gravata"><path d="M447.03,343.71c5.38,6.66,12.62,12.18,20.26,15.97,6.63,3.28,13.81,5.29,21.21,5.69,8.4,.46,16.78-1.22,24.47-4.59,5.46-2.39,10.52-5.69,14.99-9.63,2.18-1.92-1.02-5.09-3.18-3.18-.62,.54-1.25,1.08-1.89,1.59-.18,.14-.36,.28-.54,.43-.05,.04-.33,.26-.04,.03-.09,.07-.17,.13-.26,.2-.49,.37-.99,.73-1.49,1.09-2.37,1.68-4.87,3.17-7.47,4.46-6.85,3.4-14.47,5.21-22.12,5.17-12.55-.06-24.6-5.43-33.85-13.39-2.49-2.14-4.86-4.47-6.93-7.02-.76-.95-2.39-.8-3.18,0-.94,.94-.77,2.23,0,3.18h0Z"/><path d="M624.61,354c5.8,6.52,13.43,11.79,21.41,15.23,6.92,2.99,14.35,4.67,21.91,4.65,8.34-.03,16.57-2.09,24.03-5.79,5.23-2.6,10.07-6.05,14.29-10.09,2.1-2.01-1.09-5.19-3.18-3.18-3.42,3.27-6.87,5.82-11.07,8.16-6.59,3.68-13.98,5.92-21.52,6.32s-14.27-.85-20.94-3.46c-2.79-1.09-5.48-2.45-8.06-3.98-1.17-.69-2.32-1.43-3.45-2.2-.53-.36-1.05-.73-1.56-1.1-.4-.29-1.15-.85-1.27-.95-2.64-2.05-5.17-4.31-7.4-6.81-1.93-2.17-5.1,1.02-3.18,3.18h0Z"/></g></svg>