<?xml version="1.0" encoding="UTF-8"?><svg id="Camada_2" xmlns="http://www.w3.org/2000/svg" viewBox="0 0 1080 1080"><defs><style>.cls-1{fill:#fff;}.cls-1,.cls-2{stroke:#000;stroke-miterlimit:10;stroke-width:10px;}.cls-2{fill:none;}</style></defs><g id="Camada_3"><path class="cls-1" d="M806,658c2.43,.26,33.47,3.24,56.04-9,11.98-6.5,18.01-15.34,17.42-24.11-.36-5.41-3.19-9.35-4.34-10.89-14.27-19.2-64.24-19.51-68.47-19.5l-.65,63.5Z"/><path class="cls-1" d="M821.5,655.17l.13-196.58c-.83-40.85-3.41-81.63-7.83-122.18-10.9-100.07-23.76-161.73-69.31-213.86-66.88-76.54-158.71-80.43-182-80.55-11.06-.06-118.26,1.31-197,94.16-20.61,24.31-59,66.93-79,222.35-6.32,49.1-18,190.59-12,448.1l4.55,120.58c2.29,60.84,58.64,99.23,107.06,72.94l11.58-6.29c25.1-13.63,54.78-10.33,77.08,8.56l23.28,19.72c23.98,20.32,56.34,22.47,82.25,5.46l54.92-36.05c22.55-14.8,50.26-15.23,73.16-1.14h0c48.79,30.03,108.4-8.54,110.45-71.46l2.68-262.63v-1.13Z"/><path class="cls-1" d="M430.5,652.54c2.11,.26,28.96,3.24,48.49-9,14.75-9.24,19.06-23.24,11.31-35-9.05-13.72-33.06-22.15-58.19-20"/><ellipse class="cls-1" cx="493" cy="282" rx="49.5" ry="60.5"/><ellipse class="cls-1" cx="667" cy="290" rx="49.5" ry="60.5"/><path class="cls-2" d="M272.5,675.5l106.12,61.84c18.92,11.02,26.96,34.2,18.94,54.57l-38.3,97.32c-7.98,20.27-30.5,30.67-51.1,23.59l-29.66-10.19"/><path d="M314.74,667.09c-3.2,5.55-6.41,11.1-9.61,16.65-5.1,8.84-10.21,17.68-15.31,26.52-1.17,2.02-2.33,4.04-3.5,6.07-1.96,3.4-.9,8.36,2.69,10.26s8.17,.94,10.26-2.69c3.2-5.55,6.41-11.1,9.61-16.65,5.1-8.84,10.21-17.68,15.31-26.52,1.17-2.02,2.33-4.04,3.5-6.07,1.96-3.4,.9-8.36-2.69-10.26s-8.17-.94-10.26,2.69h0Z"/><path d="M374.93,701.82c-3.2,5.55-6.41,11.1-9.61,16.65-5.1,8.84-10.21,17.68-15.31,26.52-1.17,2.02-2.33,4.04-3.5,6.07-1.96,3.4-.9,8.36,2.69,10.26s8.17,.94,10.26-2.69c3.2-5.55,6.41-11.1,9.61-16.65,5.1-8.84,10.21-17.68,15.31-26.52,1.17-2.02,2.33-4.04,3.5-6.07,1.96-3.4,.9-8.36-2.69-10.26s-8.17-.94-10.26,2.69h0Z"/><path d="M415.97,817.27c-5.86-2.6-11.72-5.19-17.58-7.79-9.33-4.14-18.67-8.27-28-12.41-2.13-.95-4.27-1.89-6.4-2.84-1.91-.84-3.69-1.33-5.78-.76-1.74,.48-3.63,1.82-4.48,3.45-.92,1.74-1.38,3.85-.76,5.78,.56,1.74,1.7,3.71,3.45,4.48,5.86,2.6,11.72,5.19,17.58,7.79,9.33,4.14,18.67,8.27,28,12.41,2.13,.95,4.27,1.89,6.4,2.84,1.91,.84,3.69,1.33,5.78,.76,1.74-.48,3.63-1.82,4.48-3.45,.92-1.74,1.38-3.85,.76-5.78-.56-1.74-1.7-3.71-3.45-4.48h0Z"/><path d="M396.97,885.27c-5.86-2.6-11.72-5.19-17.58-7.79-9.33-4.14-18.67-8.27-28-12.41-2.13-.95-4.27-1.89-6.4-2.84-1.91-.84-3.69-1.33-5.78-.76-1.74,.48-3.63,1.82-4.48,3.45-.92,1.74-1.38,3.85-.76,5.78,.56,1.74,1.7,3.71,3.45,4.48,5.86,2.6,11.72,5.19,17.58,7.79,9.33,4.14,18.67,8.27,28,12.41,2.13,.95,4.27,1.89,6.4,2.84,1.91,.84,3.69,1.33,5.78,.76,1.74-.48,3.63-1.82,4.48-3.45,.92-1.74,1.38-3.85,.76-5.78-.56-1.74-1.7-3.71-3.45-4.48h0Z"/><path class="cls-2" d="M598.68,45.77l-15.89,23.04c-4.14,6.01,.16,14.19,7.45,14.19h22.2c12.13,0,24.22,1.48,35.99,4.4l10.55,2.62c4.54,1.13,9.19-1.39,10.73-5.81l5.29-15.2"/><path d="M601.56,71.28c-1.34,6.26-2.68,12.51-4.02,18.77-.19,.89-.38,1.78-.57,2.67-.42,1.97-.28,4,.76,5.78,.91,1.56,2.69,3.04,4.48,3.45,3.77,.86,8.35-1.14,9.23-5.24,1.34-6.26,2.68-12.51,4.02-18.77,.19-.89,.38-1.78,.57-2.67,.42-1.97,.28-4-.76-5.78-.91-1.56-2.69-3.04-4.48-3.45-3.77-.86-8.35,1.14-9.23,5.24h0Z"/><path d="M636.6,75.74c-.49,6.37-.97,12.74-1.46,19.12-.07,.92-.14,1.83-.21,2.75-.14,1.83,.94,4.04,2.2,5.3s3.44,2.28,5.3,2.2c4.32-.19,7.18-3.3,7.5-7.5,.49-6.37,.97-12.74,1.46-19.12,.07-.92,.14-1.83,.21-2.75,.14-1.83-.94-4.04-2.2-5.3s-3.44-2.28-5.3-2.2c-4.32,.19-7.18,3.3-7.5,7.5h0Z"/><path d="M443.32,347.43c1.81,2.24,3.87,4.3,6.01,6.22,4.62,4.13,9.75,7.81,15.31,10.57,7.51,3.71,15.48,5.95,23.86,6.41,9.38,.52,18.57-1.56,27.12-5.3,5.87-2.57,11.25-6.22,16.05-10.45,2.95-2.6,2.86-7.98,0-10.61-3.15-2.89-7.46-2.78-10.61,0-.71,.63-1.44,1.24-2.19,1.84-1.19,.95,1.24-.93,.62-.48-.27,.2-.53,.4-.8,.6-.59,.43-1.19,.86-1.8,1.27-2.99,2.02-6.16,3.74-9.48,5.15l1.79-.76c-4.23,1.77-8.66,3-13.21,3.63l1.99-.27c-4.45,.58-8.93,.59-13.38,.01l1.99,.27c-4.54-.63-8.95-1.86-13.18-3.64l1.79,.76c-2.49-1.06-4.91-2.3-7.23-3.69-1.05-.63-2.08-1.29-3.09-1.99-.44-.3-.88-.61-1.32-.93-.25-.18-.49-.36-.74-.54-.28-.21-1.25-.95-.05-.03,1.25,.97-.26-.21-.59-.49-.39-.32-.78-.65-1.17-.98-.74-.63-1.46-1.27-2.16-1.94-1.08-1.01-2.12-2.06-3.12-3.14-.63-.68-1.24-1.37-1.82-2.09-1.13-1.4-3.58-2.2-5.3-2.2-1.84,0-4.04,.82-5.3,2.2s-2.29,3.31-2.2,5.3c.09,2.1,.88,3.67,2.2,5.3h0Z"/><path d="M620.89,357.72c1.95,2.2,4.15,4.19,6.43,6.04,4.94,4,10.2,7.49,16.05,10.02,7.8,3.37,16.01,5.39,24.56,5.36,9.3-.03,18.38-2.38,26.68-6.51,5.61-2.79,10.83-6.57,15.36-10.91,2.84-2.72,2.94-7.91,0-10.61s-7.58-2.9-10.61,0c-.8,.76-1.61,1.5-2.45,2.21-.52,.45-1.06,.88-1.6,1.31-.87,.7,.83-.64,.86-.66-.17,.11-.33,.25-.49,.37-.34,.26-.69,.51-1.04,.76-3.35,2.39-6.95,4.4-10.74,6.01l1.79-.76c-4.2,1.75-8.58,2.95-13.09,3.59l1.99-.27c-4.52,.59-9.07,.61-13.59,0l1.99,.27c-4.62-.64-9.11-1.9-13.42-3.7l1.79,.76c-2.93-1.24-5.76-2.71-8.46-4.39-1.12-.7-2.23-1.44-3.3-2.2-.53-.38-1.05-.77-1.58-1.16-.91-.67,1.79,1.41,.6,.46-.23-.19-.47-.37-.7-.56-2.28-1.85-4.47-3.84-6.43-6.04-2.61-2.94-7.98-2.87-10.61,0-2.88,3.14-2.79,7.47,0,10.61h0Z"/></g></svg>