<?xml version="1.0" encoding="UTF-8"?><svg id="Gravata" xmlns="http://www.w3.org/2000/svg" viewBox="0 0 1080 1080"><defs><style>.cls-1{fill:#7f3c00;}.cls-1,.cls-2{stroke:#000;stroke-miterlimit:10;stroke-width:10px;}.cls-2{fill:#fff;}</style></defs><g id="Camada_3"><path class="cls-2" d="M806,658c2.43,.26,33.47,3.24,56.04-9,11.98-6.5,18.01-15.34,17.42-24.11-.36-5.41-3.19-9.35-4.34-10.89-14.27-19.2-64.24-19.51-68.47-19.5l-.65,63.5Z"/><path class="cls-2" d="M821.5,655.17l.13-196.58c-.83-40.85-3.41-81.63-7.83-122.18-10.9-100.07-23.76-161.73-69.31-213.86-66.88-76.54-158.71-80.43-182-80.55-11.06-.06-118.26,1.31-197,94.16-20.61,24.31-59,66.93-79,222.35-6.32,49.1-18,190.59-12,448.1l4.55,120.58c2.29,60.84,58.64,99.23,107.06,72.94l11.58-6.29c25.1-13.63,54.78-10.33,77.08,8.56l23.28,19.72c23.98,20.32,56.34,22.47,82.25,5.46l54.92-36.05c22.55-14.8,50.26-15.23,73.16-1.14h0c48.79,30.03,108.4-8.54,110.45-71.46l2.68-262.63v-1.13Z"/><path class="cls-2" d="M430.5,652.54c2.11,.26,28.96,3.24,48.49-9,14.75-9.24,19.06-23.24,11.31-35-9.05-13.72-33.06-22.15-58.19-20"/><ellipse class="cls-2" cx="493" cy="282" rx="49.5" ry="60.5"/><ellipse class="cls-2" cx="667" cy="290" rx="49.5" ry="60.5"/><path class="cls-1" d="M272.5,675.5l106.12,61.84c18.92,11.02,26.96,34.2,18.94,54.57l-38.3,97.32c-7.98,20.27-30.5,30.67-51.1,23.59l-29.66-10.19"/><path d="M314.74,667.09c-3.2,5.55-6.41,11.1-9.61,16.65-5.1,8.84-10.21,17.68-15.31,26.52-1.17,2.02-2.33,4.04-3.5,6.07-1.96,3.4-.9,8.36,2.69,10.26,3.58,1.89,8.17,.94,10.26-2.69,3.2-5.55,6.41-11.1,9.61-16.65,5.1-8.84,10.21-17.68,15.31-26.52,1.17-2.02,2.33-4.04,3.5-6.07,1.96-3.4,.9-8.36-2.69-10.26-3.58-1.89-8.17-.94-10.26,2.69h0Z"/><path d="M374.93,701.82c-3.2,5.55-6.41,11.1-9.61,16.65-5.1,8.84-10.21,17.68-15.31,26.52-1.17,2.02-2.33,4.04-3.5,6.07-1.96,3.4-.9,8.36,2.69,10.26,3.58,1.89,8.17,.94,10.26-2.69,3.2-5.55,6.41-11.1,9.61-16.65,5.1-8.84,10.21-17.68,15.31-26.52,1.17-2.02,2.33-4.04,3.5-6.07,1.96-3.4,.9-8.36-2.69-10.26s-8.17-.94-10.26,2.69h0Z"/><path d="M415.97,817.27c-5.86-2.6-11.72-5.19-17.58-7.79-9.33-4.14-18.67-8.27-28-12.41-2.13-.95-4.27-1.89-6.4-2.84-1.91-.84-3.69-1.33-5.78-.76-1.74,.48-3.63,1.82-4.48,3.45-.92,1.74-1.38,3.85-.76,5.78,.56,1.74,1.7,3.71,3.45,4.48,5.86,2.6,11.72,5.19,17.58,7.79,9.33,4.14,18.67,8.27,28,12.41,2.13,.95,4.27,1.89,6.4,2.84,1.91,.84,3.69,1.33,5.78,.76,1.74-.48,3.63-1.82,4.48-3.45,.92-1.74,1.38-3.85,.76-5.78-.56-1.74-1.7-3.71-3.45-4.48h0Z"/><path d="M396.97,885.27c-5.86-2.6-11.72-5.19-17.58-7.79-9.33-4.14-18.67-8.27-28-12.41-2.13-.95-4.27-1.89-6.4-2.84-1.91-.84-3.69-1.33-5.78-.76-1.74,.48-3.63,1.82-4.48,3.45-.92,1.74-1.38,3.85-.76,5.78,.56,1.74,1.7,3.71,3.45,4.48,5.86,2.6,11.72,5.19,17.58,7.79,9.33,4.14,18.67,8.27,28,12.41,2.13,.95,4.27,1.89,6.4,2.84,1.91,.84,3.69,1.33,5.78,.76,1.74-.48,3.63-1.82,4.48-3.45,.92-1.74,1.38-3.85,.76-5.78-.56-1.74-1.7-3.71-3.45-4.48h0Z"/><path class="cls-1" d="M598.68,45.77l-15.89,23.04c-4.14,6.01,.16,14.19,7.45,14.19h22.2c12.13,0,24.22,1.48,35.99,4.4l10.55,2.62c4.54,1.13,9.19-1.39,10.73-5.81l5.29-15.2"/><path d="M601.56,71.28c-1.34,6.26-2.68,12.51-4.02,18.77-.19,.89-.38,1.78-.57,2.67-.42,1.97-.28,4,.76,5.78,.91,1.56,2.69,3.04,4.48,3.45,3.77,.86,8.35-1.14,9.23-5.24,1.34-6.26,2.68-12.51,4.02-18.77,.19-.89,.38-1.78,.57-2.67,.42-1.97,.28-4-.76-5.78-.91-1.56-2.69-3.04-4.48-3.45-3.77-.86-8.35,1.14-9.23,5.24h0Z"/><path d="M636.6,75.74c-.49,6.37-.97,12.74-1.46,19.12-.07,.92-.14,1.83-.21,2.75-.14,1.83,.94,4.04,2.2,5.3s3.44,2.28,5.3,2.2c4.32-.19,7.18-3.3,7.5-7.5,.49-6.37,.97-12.74,1.46-19.12,.07-.92,.14-1.83,.21-2.75,.14-1.83-.94-4.04-2.2-5.3s-3.44-2.28-5.3-2.2c-4.32,.19-7.18,3.3-7.5,7.5h0Z"/><path d="M444.38,346.37c1.81,2.24,3.87,4.3,6.01,6.22,4.52,4.05,9.55,7.63,15,10.33,7.25,3.59,15.01,5.76,23.1,6.21,9.1,.5,18.06-1.47,26.36-5.1,5.76-2.52,11.04-6.06,15.75-10.21,2.36-2.08,2.29-6.39,0-8.49-2.52-2.31-5.97-2.22-8.49,0-.62,.54-1.25,1.08-1.89,1.59-.18,.14-.36,.28-.54,.43-.68,.55,1.32-1,.47-.36-.49,.37-.99,.73-1.49,1.09-2.37,1.68-4.87,3.17-7.47,4.46-.69,.34-1.39,.67-2.1,.99-.2,.09-.43,.17-.63,.27,.08-.04,1.4-.57,.47-.2-.44,.17-.88,.35-1.32,.52-1.8,.68-3.65,1.26-5.52,1.74-.89,.23-1.79,.43-2.7,.61-.46,.09-.93,.18-1.4,.26-.27,.05-.54,.08-.81,.13-1.38,.23,.97-.1,.15-.02-2.13,.22-4.25,.38-6.39,.37-1.89,0-3.77-.15-5.65-.35-1.09-.11,1.33,.2-.03,0-.42-.06-.83-.13-1.24-.21-.93-.17-1.85-.36-2.77-.58-1.71-.41-3.4-.91-5.06-1.49-.72-.25-1.44-.52-2.16-.81-.2-.08-.4-.16-.6-.24-.7-.27,1.22,.55,.54,.23-.38-.18-.78-.34-1.16-.52-2.75-1.27-5.4-2.76-7.92-4.43-1.11-.74-2.2-1.52-3.27-2.32-.64-.48,1.28,1.02,.22,.17-.22-.18-.45-.36-.67-.54-.48-.39-.96-.79-1.44-1.2-2.49-2.14-4.86-4.47-6.93-7.02-1.98-2.45-6.45-2.22-8.49,0-2.39,2.6-2.11,5.87,0,8.49h0Z"/><path d="M621.95,356.66c1.95,2.2,4.15,4.19,6.43,6.04,4.83,3.91,10.02,7.31,15.74,9.78,7.55,3.26,15.53,5.19,23.8,5.16,9.03-.03,17.86-2.3,25.92-6.31,5.5-2.74,10.61-6.42,15.05-10.67,2.27-2.18,2.35-6.33,0-8.49-2.44-2.24-6.06-2.32-8.49,0-1.35,1.29-2.77,2.5-4.23,3.67-.26,.21,1.3-.99,.35-.28-.27,.2-.54,.41-.82,.6-.59,.42-1.18,.84-1.78,1.24-1.25,.83-2.53,1.62-3.84,2.35-1.46,.81-2.95,1.56-4.47,2.24-.21,.09-.44,.17-.64,.28,.09-.05,1.38-.56,.45-.19-.39,.15-.79,.31-1.18,.46-.93,.35-1.87,.68-2.82,.97-1.89,.59-3.81,1.07-5.75,1.44-.47,.09-.95,.17-1.43,.25-.16,.03-.64,.16-.83,.13,.11,.02,1.46-.17,.33-.05s-2.19,.22-3.28,.28c-1.93,.1-3.86,.1-5.79-.02-.86-.05-1.73-.13-2.59-.23-.23-.03-.49-.08-.73-.09,.1,0,1.53,.23,.52,.06-.47-.08-.94-.15-1.42-.23-3.4-.61-6.73-1.57-9.95-2.82-.35-.14-.69-.29-1.04-.42,1.82,.65,.4,.17-.02-.02-.75-.34-1.5-.69-2.23-1.05-1.32-.66-2.61-1.36-3.87-2.11-1.17-.69-2.32-1.43-3.45-2.2-.53-.36-1.05-.73-1.56-1.1-.23-.17-.46-.34-.69-.51-.13-.1-.25-.19-.38-.29-.72-.53,1.1,.86,.56,.44-2.62-2.09-5.17-4.3-7.4-6.81-2.09-2.35-6.38-2.29-8.49,0-2.31,2.51-2.23,5.98,0,8.49h0Z"/></g></svg>