<?xml version="1.0" encoding="UTF-8"?><svg id="Camada_5" xmlns="http://www.w3.org/2000/svg" viewBox="0 0 1080 1088"><defs><style>.cls-1{fill:#df0006;}.cls-1,.cls-2,.cls-3,.cls-4{stroke:#000;stroke-miterlimit:10;stroke-width:10px;}.cls-2{fill:#feff4a;}.cls-3{fill:#fff;}</style></defs><g id="Foto_rei"><path class="cls-1" d="M830.59,569.1c7.31,7.13,17.25,19.17,16.43,33.9-1.05,18.92-19.32,32.43-23.73,36.09-56.64,46.96,92.4,192.91,43.81,322.58-5.83,15.55-21.64,55.59-63.89,62.33-23.68,3.78-48.66-4.03-60.24-7.65,0,0-52.82-8.99-63.89-39.37-21.9-60.14,18.25-305.09,73.01-396.94,10.59-17.77,56.25-10.56,78.49-10.94Z"/><path class="cls-1" d="M463,550c-33,5-41.9,55.37-74,148-37.72,108.83-20,153-36,244-3.77,21.42-38.75,71.31-97,89-60.57,18.4-149.88,4.37-162-36-13.78-45.87,82.9-77.59,129-184,48.59-112.17,21-168,47-238,28.37-76.39,233.27-29.1,193-23Z"/><path class="cls-3" d="M806,697c2.43,.26,33.47,3.24,56.04-9,11.98-6.5,18.01-15.34,17.42-24.11-.36-5.41-3.19-9.35-4.34-10.89-14.27-19.2-64.24-19.51-68.47-19.5l-.65,63.5Z"/><path class="cls-3" d="M820.5,694.17l.13-196.58c-.83-40.85-3.41-81.63-7.83-122.18-10.9-100.07-23.76-161.73-69.31-213.86-66.88-76.54-158.71-80.43-182-80.55-11.06-.06-118.26,1.31-197,94.16-20.61,24.31-59,66.93-79,222.35-6.32,49.1-18,190.59-12,448.1l4.55,120.58c2.29,60.84,58.64,99.23,107.06,72.94l11.58-6.29c25.1-13.63,54.78-10.33,77.08,8.56l23.28,19.72c23.98,20.32,56.34,22.47,82.25,5.46l54.92-36.05c22.55-14.8,50.26-15.23,73.16-1.14h0c48.79,30.03,108.4-8.54,110.45-71.46l2.68-262.63v-1.13Z"/><path class="cls-3" d="M430.5,691.54c2.11,.26,28.96,3.24,48.49-9,14.75-9.24,19.06-23.24,11.31-35-9.05-13.72-33.06-22.15-58.19-20"/><ellipse class="cls-3" cx="493" cy="321" rx="49.5" ry="60.5"/><ellipse class="cls-3" cx="667" cy="329" rx="49.5" ry="60.5"/><path class="cls-2" d="M383.25,183.35l94.56-44.28c.22-.1,.32-.37,.21-.59l-48.44-103.44c-.2-.42-.83-.29-.85,.17l-2.43,59.71c-.02,.37-.46,.56-.74,.32l-43.21-38c-.45-.39-1.15-.08-1.15,.52l-.21,58.37c0,.37-.44,.58-.73,.34l-44.64-36.93c-.36-.3-.88,.1-.69,.53l47.73,103.08c.1,.22,.37,.32,.59,.22Z"/><circle class="cls-4" cx="327.22" cy="63.01" r="5"/><circle class="cls-4" cx="371.23" cy="29.01" r="7"/><circle class="cls-4" cx="422.24" cy="20" r="5"/><path class="cls-1" d="M602,541c4.03-29.09,120.81-34.59,134-35,39.03-1.22,69.04,3.15,95,20,8.76,5.68,26.9,17.46,26,33-.49,8.38-6.49,17.58-15,21-13.74,5.52-23.94-8.11-58-21-6.78-2.57-24.39-8.84-47-12-19.54-2.73-35.85-5-55,0-27.7,7.23-41.72,13.47-58,10-13.01-2.77-23.5-5.2-22-16Z"/><path class="cls-1" d="M567.13,542.37c-13.05-28.37-138.01-39.96-153.01-40.37-44.41-1.22-83.12-.85-112.65,16-9.96,5.68-35.31,24.47-36.41,40-1.14,16,16.16,24.41,26.17,27,19.34,5,34.14-7,68.81-24.63,7.14-3.63,27.97-7.69,53.48-12,19.95-3.37,40.79-5,62.59,0,31.52,7.23,47.48,13.47,66,10,14.8-2.77,29.68-5.89,25.03-16Z"/><circle class="cls-2" cx="583" cy="544" r="19"/></g></svg>