<?xml version="1.0" encoding="UTF-8"?><svg id="Camada_5" xmlns="http://www.w3.org/2000/svg" viewBox="0 0 1080 1080"><defs><style>.cls-1{fill:#310aff;}.cls-1,.cls-2,.cls-3,.cls-4,.cls-5,.cls-6,.cls-7,.cls-8{stroke:#000;stroke-miterlimit:10;stroke-width:10px;}.cls-2{fill:#c22aff;}.cls-3{fill:#5f000d;}.cls-4{fill:#00d4b3;}.cls-5{fill:#740009;}.cls-6{fill:#ff0023;}.cls-7{fill:#fff;}.cls-8{fill:none;}</style></defs><g id="Foto_rei"><path class="cls-7" d="M806,658c2.43,.26,33.47,3.24,56.04-9,11.98-6.5,18.01-15.34,17.42-24.11-.36-5.41-3.19-9.35-4.34-10.89-14.27-19.2-64.24-19.51-68.47-19.5l-.65,63.5Z"/><path class="cls-7" d="M824.5,659.17l.13-196.58c-.83-40.85-3.41-81.63-7.83-122.18-10.9-100.07-23.76-161.73-69.31-213.86-66.88-76.54-158.71-80.43-182-80.55-11.06-.06-118.26,1.31-197,94.16-20.61,24.31-59,66.93-79,222.35-6.32,49.1-18,190.59-12,448.1l4.55,120.58c2.29,60.84,58.64,99.23,107.06,72.94l11.58-6.29c25.1-13.63,54.78-10.33,77.08,8.56l23.28,19.72c23.98,20.32,56.34,22.47,82.25,5.46l54.92-36.05c22.55-14.8,50.26-15.23,73.16-1.14h0c48.79,30.03,108.4-8.54,110.45-71.46l2.68-262.63v-1.13Z"/><path class="cls-7" d="M430.5,652.54c2.11,.26,28.96,3.24,48.49-9,14.75-9.24,19.06-23.24,11.31-35-9.05-13.72-33.06-22.15-58.19-20"/><ellipse class="cls-7" cx="493" cy="282" rx="49.5" ry="60.5"/><ellipse class="cls-7" cx="667" cy="290" rx="49.5" ry="60.5"/><path class="cls-7" d="M857.58,557h8.69c.71,0,2.32,11.69,3.23,15.67l.83,23.18c-.21,10.31-.8,23.86-2.71,37.22l-8.36,58.41c-.1,1.7-2.33,1.7-2.43,0l-7.57-61.91c-1.17-9.56-1.94-24.87-1.76-34.52v-21.27c-.05-.79,1.6-16.79,2.31-16.79h7.77"/><path class="cls-7" d="M798.5,903.5h-285c-6.6,0-12-5.4-12-12v-328c0-6.6,5.4-12,12-12l48.31,16.2c77.93,26.13,163.05,20.31,236.69-16.2h0c6.6,0,12,5.4,12,12v328c0,6.6-5.4,12-12,12Z"/><line class="cls-8" x1="503.5" y1="556.5" x2="280.5" y2="478.5"/><line class="cls-8" x1="501.5" y1="771.5" x2="276.5" y2="759.5"/><line class="cls-8" x1="810.5" y1="559.5" x2="824.5" y2="548.5"/><line class="cls-8" x1="810.5" y1="774.5" x2="824.5" y2="771.5"/><path class="cls-4" d="M387.37,465.81c-9.66,4.04-24.64-2.2-27.43-10.74-2.44-7.48,6.3-11.07,7.88-25.2,1.43-12.75-5.07-15.29-3.3-25.31,2.67-15.07,20.83-28.97,33.77-26.36,7.92,1.6,7.17,8.01,19.16,14.35,12.89,6.81,18.78,2.05,26.11,8.4,8.16,7.06,11.59,22.23,5.56,32.28-6.46,10.76-21.62,12.02-26.56,12.44-8.91,.74-10.17-1.96-15.67-.06-11.08,3.84-9.74,16.12-19.52,20.22Z"/><path class="cls-3" d="M496.21,20.91c14.29,22-10.81,69.04-60.13,101.09-49.32,32.05-90.06,62.37-104.35,40.38-14.29-22,3.27-87.99,52.59-120.04C433.64,10.28,481.92-1.09,496.21,20.91Z"/><path class="cls-8" d="M374.74,162h0c4.59,7.06,14.18,8.79,20.95,3.79l99.44-73.58c8.94-6.62,11.19-19.05,5.13-28.38l-4.74-7.3"/><path class="cls-5" d="M401.76,71.31h0c2.9-3.59,2.35-9.72-1.27-14.34l-19.35-24.66c-4.63-5.9-12.08-6.69-15.28-1.63l-7.38,11.67c-3.24,5.12-.42,13.54,5.73,17.12l22.98,13.38c5.42,3.16,11.26,2.54,14.57-1.55Z"/><path class="cls-7" d="M870,539c.33-5.79-6.17-8.72-6-15,.19-7.13,7.05-16.59,6-19-1.04-2.39-15.47,6.85-20,15-5,9-3.56,18.69-3,22,.71,4.19,2.63,6.54,7,8,12,4,15.64-4.59,16-11Z"/><path class="cls-1" d="M712.16,839.23c-6.01-8.56-3.14-24.54,4.61-29.1,6.78-3.99,12.16,3.78,26.31,2.29,12.76-1.34,13.84-8.23,24.02-8.65,15.3-.63,32.76,14.13,32.99,27.33,.14,8.08-6.29,8.72-9.91,21.8-3.89,14.05,2.03,18.78-2.6,27.31-5.15,9.48-19.23,16.09-30.33,12.35-11.9-4-16.38-18.53-17.85-23.28-2.64-8.54-.27-10.36-3.31-15.32-6.12-9.99-17.84-6.05-23.93-14.73Z"/><path class="cls-2" d="M777.18,590.25c10.12-2.68,24.11,5.55,25.7,14.39,1.4,7.74-7.75,10.1-11.25,23.89-3.16,12.43,2.93,15.84-.19,25.53-4.7,14.57-24.6,25.85-37.06,21.49-7.63-2.66-6.01-8.92-17.02-16.84-11.84-8.51-18.32-4.6-24.72-11.89-7.12-8.11-8.44-23.61-1.09-32.73,7.87-9.78,23.06-8.96,28.02-8.69,8.93,.48,9.81,3.33,15.52,2.2,11.5-2.29,11.85-14.64,22.1-17.36Z"/><path class="cls-6" d="M555.29,722.39c-7.22-10.28-3.77-29.44,5.53-34.91,8.13-4.79,14.59,4.53,31.57,2.74,15.31-1.61,16.61-9.88,28.82-10.38,18.35-.75,39.31,16.96,39.59,32.8,.17,9.69-7.55,10.47-11.89,26.16-4.66,16.86,2.43,22.54-3.12,32.77-6.17,11.38-23.07,19.31-36.4,14.82-14.28-4.8-19.66-22.24-21.41-27.93-3.16-10.25-.32-12.43-3.97-18.38-7.35-11.99-21.4-7.26-28.72-17.68Z"/><path class="cls-7" d="M626,727h131c2.33,39.41-24.94,71.85-56,76-36.21,4.84-76.4-28.93-75-76Z"/></g></svg>