<?xml version="1.0" encoding="UTF-8"?><svg id="Camada_2" xmlns="http://www.w3.org/2000/svg" viewBox="0 0 1080 1080"><defs><style>.cls-1{fill:#fff;}.cls-1,.cls-2{stroke:#000;stroke-miterlimit:10;stroke-width:10px;}.cls-2{fill:none;}</style></defs><g id="Camada_3"><path class="cls-1" d="M797.78,667.53l.13-196.58c-.83-40.85-3.41-81.63-7.83-122.18-10.9-100.07-23.76-161.73-69.31-213.86-66.88-76.54-158.71-80.43-182-80.55-11.06-.06-118.26,1.31-197,94.16-20.61,24.31-59,66.93-79,222.35-6.32,49.1-18,190.59-12,448.1l4.55,120.58c2.29,60.84,58.64,99.23,107.06,72.94l11.58-6.29c25.1-13.63,54.78-10.33,77.08,8.56l23.28,19.72c23.98,20.32,56.34,22.47,82.25,5.46l54.92-36.05c22.55-14.8,50.26-15.23,73.16-1.14h0c48.79,30.03,108.4-8.54,110.45-71.46l2.68-262.63v-1.13Z"/><path class="cls-1" d="M798,627c2.43,.26,33.47,3.24,56.04-9,11.98-6.5,18.01-15.34,17.42-24.11-.36-5.41-3.19-9.35-4.34-10.89-14.27-19.2-64.24-19.51-68.47-19.5l-.65,63.5Z"/><path class="cls-1" d="M422.5,621.54c2.11,.26,28.96,3.24,48.49-9,14.75-9.24,19.06-23.24,11.31-35-9.05-13.72-33.06-22.15-58.19-20"/><ellipse class="cls-1" cx="498" cy="317" rx="49.5" ry="60.5"/><ellipse class="cls-1" cx="672" cy="325" rx="49.5" ry="60.5"/><path class="cls-1" d="M543.82,294.76c-9.16-1.29-21.09-2.61-35.09-3.26-25.12-1.16-45.03,.38-56.93,1.71"/><path class="cls-1" d="M716,296.97c-8.54-1.24-19.65-2.53-32.7-3.23-23.42-1.27-41.99-.07-53.09,1.02"/><path class="cls-1" d="M583.78,541.39l22.15,107.8c.37,1.81,.05,3.69-.91,5.27l-15.62,25.78c-2.76,4.55-9.3,4.74-12.31,.34l-17.76-25.92c-1.16-1.69-1.56-3.8-1.09-5.8l24.96-107.48c.07-.31,.52-.31,.59,0Z"/><path class="cls-1" d="M580.77,544.39l-18.48-24.79c-1.57-2.1-.07-5.1,2.56-5.1h34.74c2.54,0,4.06,2.82,2.67,4.94l-16.26,24.79c-1.22,1.85-3.9,1.93-5.23,.16Z"/><ellipse class="cls-1" cx="396.9" cy="116.11" rx="68.77" ry="16.5" transform="translate(3.84 244.62) rotate(-34.41)"/><path class="cls-1" d="M350.02,133.38l-33.45-49.6c-3.36-4.99-2.05-11.76,2.94-15.13l61.52-41.5c4.99-3.36,11.76-2.05,15.13,2.94l33.45,49.6c2.74,4.06,2.43,9.44-.74,13.17h0c-17.64,20.67-40.58,36.15-66.36,44.76h0c-4.64,1.55-9.75-.18-12.49-4.24Z"/><path class="cls-1" d="M356.26,142.64l-10.04-14.88c-1.01-1.5,2.22-5.44,7.2-8.8l61.52-41.5c4.99-3.36,9.85-4.88,10.86-3.38l10.04,14.88c.82,1.22-1.16,4.11-4.85,7.07h0c-20.49,16.45-43.43,31.93-66.36,44.76h0c-4.13,2.31-7.56,3.07-8.38,1.85Z"/><path class="cls-2" d="M251,483.5c90.55,10.15,192.84,16.5,304.88,15,86.43-1.15,166.61-6.81,239.62-15"/><path class="cls-2" d="M585.5,763.5c-.36-3.06-.69-6.14-1-9.24-2.42-24.48-2.92-47.95-2-70.26"/><path class="cls-2" d="M252.56,750c89.87,10.21,191.4,16.6,302.61,15.1,85.78-1.16,165.37-6.86,237.83-15.1"/><circle class="cls-2" cx="596" cy="701" r="5.5"/><circle class="cls-2" cx="596" cy="742" r="5.5"/></g></svg>